{
  "accessors": [
    {
      "bufferView": 2,
      "componentType": 5126,
      "count": 13680,
      "max": [
        0.7649218440055847,
        1.6356958150863647,
        0.20608706772327423
      ],
      "min": [
        -0.7649218440055847,
        0.00020432373275980353,
        -0.08536764979362488
      ],
      "type": "VEC3"
    },
    {
      "bufferView": 2,
      "byteOffset": 164160,
      "componentType": 5126,
      "count": 13680,
      "max": [
        0.9999504685401917,
        0.9998012781143188,
        0.9999713897705078
      ],
      "min": [
        -0.9999504685401917,
        -0.9999505877494812,
        -0.9999644756317139
      ],
      "type": "VEC3"
    },
    {
      "bufferView": 1,
      "componentType": 5126,
      "count": 13680,
      "max": [
        0.763001024723053,
        1.0
      ],
      "min": [
        0.0,
        0.039682984352111816
      ],
      "type": "VEC2"
    },
    {
      "bufferView": 0,
      "componentType": 5125,
      "count": 76578,
      "type": "SCALAR"
    },
    {
      "bufferView": 2,
      "byteOffset": 328320,
      "componentType": 5126,
      "count": 1076,
      "max": [
        0.043582551181316376,
        1.5324901342391968,
        0.12877435982227325
      ],
      "min": [
        -0.04475362226366997,
        1.502188801765442,
        0.10292278230190277
      ],
      "type": "VEC3"
    },
    {
      "bufferView": 2,
      "byteOffset": 341232,
      "componentType": 5126,
      "count": 1076,
      "max": [
        0.9999810457229614,
        0.9998385906219482,
        0.9996113181114197
      ],
      "min": [
        -0.9999370574951172,
        -0.9999159574508667,
        -0.4495735764503479
      ],
      "type": "VEC3"
    },
    {
      "bufferView": 1,
      "byteOffset": 109440,
      "componentType": 5126,
      "count": 1076,
      "max": [
        0.991100013256073,
        0.9890000224113464
      ],
      "min": [
        0.03620000183582306,
        0.02369999885559082
      ],
      "type": "VEC2"
    },
    {
      "bufferView": 0,
      "byteOffset": 306312,
      "componentType": 5125,
      "count": 6120,
      "type": "SCALAR"
    },
    {
      "bufferView": 2,
      "byteOffset": 354144,
      "componentType": 5126,
      "count": 480,
      "max": [
        0.07660075277090073,
        1.6387734413146973,
        0.08349202573299408
      ],
      "min": [
        -0.07660075277090073,
        1.4813168048858643,
        -0.06932512670755386
      ],
      "type": "VEC3"
    },
    {
      "bufferView": 2,
      "byteOffset": 359904,
      "componentType": 5126,
      "count": 480,
      "max": [
        0.994554340839386,
        0.9998654723167419,
        0.7138093113899231
      ],
      "min": [
        -0.9945544600486755,
        -0.6557585597038269,
        -0.9999961256980896
      ],
      "type": "VEC3"
    },
    {
      "bufferView": 1,
      "byteOffset": 118048,
      "componentType": 5126,
      "count": 480,
      "max": [
        0.0,
        1.0
      ],
      "min": [
        0.0,
        1.0
      ],
      "type": "VEC2"
    },
    {
      "bufferView": 0,
      "byteOffset": 330792,
      "componentType": 5125,
      "count": 2640,
      "type": "SCALAR"
    },
    {
      "bufferView": 2,
      "byteOffset": 365664,
      "componentType": 5126,
      "count": 65532,
      "max": [
        0.1142890527844429,
        1.6416547298431396,
        0.021974321454763412
      ],
      "min": [
        -0.07283147424459457,
        0.9376646280288696,
        -0.16239967942237854
      ],
      "type": "VEC3"
    },
    {
      "bufferView": 2,
      "byteOffset": 1152048,
      "componentType": 5126,
      "count": 65532,
      "max": [
        0.9999244809150696,
        0.9998527765274048,
        0.9999446868896484
      ],
      "min": [
        -0.9999484419822693,
        -0.9997600317001343,
        -0.9999672174453735
      ],
      "type": "VEC3"
    },
    {
      "bufferView": 0,
      "byteOffset": 341352,
      "componentType": 5125,
      "count": 98298,
      "type": "SCALAR"
    },
    {
      "bufferView": 2,
      "byteOffset": 1938432,
      "componentType": 5126,
      "count": 65532,
      "max": [
        0.08142547309398651,
        1.6466224193572998,
        0.10464173555374146
      ],
      "min": [
        -0.11428821831941605,
        0.9142601490020752,
        -0.17093917727470398
      ],
      "type": "VEC3"
    },
    {
      "bufferView": 2,
      "byteOffset": 2724816,
      "componentType": 5126,
      "count": 65532,
      "max": [
        0.9997262954711914,
        0.9975320100784302,
        0.9995212554931641
      ],
      "min": [
        -0.9999681115150452,
        -0.9990413188934326,
        -0.9999874234199524
      ],
      "type": "VEC3"
    },
    {
      "bufferView": 0,
      "byteOffset": 734544,
      "componentType": 5125,
      "count": 98298,
      "type": "SCALAR"
    },
    {
      "bufferView": 2,
      "byteOffset": 3511200,
      "componentType": 5126,
      "count": 65532,
      "max": [
        0.05469084903597832,
        1.6440842151641846,
        0.10494920611381531
      ],
      "min": [
        -0.11428821831941605,
        0.931622326374054,
        -0.15044520795345306
      ],
      "type": "VEC3"
    },
    {
      "bufferView": 2,
      "byteOffset": 4297584,
      "componentType": 5126,
      "count": 65532,
      "max": [
        0.9999380707740784,
        0.9999901056289673,
        0.9999052286148071
      ],
      "min": [
        -0.9998883008956909,
        -0.9999958872795105,
        -0.999954879283905
      ],
      "type": "VEC3"
    },
    {
      "bufferView": 0,
      "byteOffset": 1127736,
      "componentType": 5125,
      "count": 98298,
      "type": "SCALAR"
    },
    {
      "bufferView": 2,
      "byteOffset": 5083968,
      "componentType": 5126,
      "count": 14704,
      "max": [
        0.09494161605834961,
        1.6416547298431396,
        0.09127696603536606
      ],
      "min": [
        -0.060767486691474915,
        0.9142601490020752,
        -0.16027194261550903
      ],
      "type": "VEC3"
    },
    {
      "bufferView": 2,
      "byteOffset": 5260416,
      "componentType": 5126,
      "count": 14704,
      "max": [
        0.9990658760070801,
        0.9990001916885376,
        0.9999968409538269
      ],
      "min": [
        -0.999618411064148,
        -1.0,
        -0.999775767326355
      ],
      "type": "VEC3"
    },
    {
      "bufferView": 0,
      "byteOffset": 1520928,
      "componentType": 5125,
      "count": 22056,
      "type": "SCALAR"
    },
    {
      "bufferView": 2,
      "byteOffset": 5436864,
      "componentType": 5126,
      "count": 1812,
      "max": [
        0.06003905087709427,
        1.5439451932907104,
        0.1022634506225586
      ],
      "min": [
        -0.06003905087709427,
        1.5323827266693115,
        0.06047198921442032
      ],
      "type": "VEC3"
    },
    {
      "bufferView": 2,
      "byteOffset": 5458608,
      "componentType": 5126,
      "count": 1812,
      "max": [
        0.9997022747993469,
        0.9967026710510254,
        0.9881598353385925
      ],
      "min": [
        -0.9997023344039917,
        -0.9999542236328125,
        -0.9848691821098328
      ],
      "type": "VEC3"
    },
    {
      "bufferView": 1,
      "byteOffset": 121888,
      "componentType": 5126,
      "count": 1812,
      "max": [
        0.0,
        1.0
      ],
      "min": [
        0.0,
        1.0
      ],
      "type": "VEC2"
    },
    {
      "bufferView": 0,
      "byteOffset": 1609152,
      "componentType": 5125,
      "count": 10848,
      "type": "SCALAR"
    },
    {
      "bufferView": 2,
      "byteOffset": 5480352,
      "componentType": 5126,
      "count": 1118,
      "max": [
        0.24813872575759888,
        1.3567148447036743,
        0.2101363241672516
      ],
      "min": [
        -0.24813872575759888,
        1.1126391887664795,
        -0.07055993378162384
      ],
      "type": "VEC3"
    },
    {
      "bufferView": 2,
      "byteOffset": 5493768,
      "componentType": 5126,
      "count": 1118,
      "max": [
        0.9999101758003235,
        0.9971875548362732,
        0.9980897307395935
      ],
      "min": [
        -0.9999101161956787,
        -0.9973753690719604,
        -0.9940593242645264
      ],
      "type": "VEC3"
    },
    {
      "bufferView": 1,
      "byteOffset": 136384,
      "componentType": 5126,
      "count": 1118,
      "max": [
        0.6373569965362549,
        1.0
      ],
      "min": [
        0.0,
        0.05496203899383545
      ],
      "type": "VEC2"
    },
    {
      "bufferView": 0,
      "byteOffset": 1652544,
      "componentType": 5125,
      "count": 6024,
      "type": "SCALAR"
    },
    {
      "bufferView": 2,
      "byteOffset": 5507184,
      "componentType": 5126,
      "count": 560,
      "max": [
        0.22699902951717377,
        0.9505529403686523,
        0.16519075632095337
      ],
      "min": [
        -0.22961217164993286,
        0.15734325349330902,
        -0.1121390238404274
      ],
      "type": "VEC3"
    },
    {
      "bufferView": 2,
      "byteOffset": 5513904,
      "componentType": 5126,
      "count": 560,
      "max": [
        0.9992898106575012,
        0.9575690031051636,
        0.9993541240692139
      ],
      "min": [
        -0.996665358543396,
        -0.6816141605377197,
        -0.9999521970748901
      ],
      "type": "VEC3"
    },
    {
      "bufferView": 1,
      "byteOffset": 145328,
      "componentType": 5126,
      "count": 560,
      "max": [
        1.0000001192092896,
        0.5000000596046448
      ],
      "min": [
        2.9802320611338473e-08,
        -1.1920928955078125e-07
      ],
      "type": "VEC2"
    },
    {
      "bufferView": 0,
      "byteOffset": 1676640,
      "componentType": 5125,
      "count": 2688,
      "type": "SCALAR"
    },
    {
      "bufferView": 2,
      "byteOffset": 5520624,
      "componentType": 5126,
      "count": 3440,
      "max": [
        0.23357968032360077,
        1.3858771324157715,
        0.22667309641838074
      ],
      "min": [
        -0.2156483232975006,
        0.14479964971542358,
        -0.1419767439365387
      ],
      "type": "VEC3"
    },
    {
      "bufferView": 2,
      "byteOffset": 5561904,
      "componentType": 5126,
      "count": 3440,
      "max": [
        0.9999699592590332,
        0.9969523549079895,
        0.9999997019767761
      ],
      "min": [
        -0.9997991323471069,
        -0.6898284554481506,
        -0.9999862313270569
      ],
      "type": "VEC3"
    },
    {
      "bufferView": 0,
      "byteOffset": 1687392,
      "componentType": 5125,
      "count": 19290,
      "type": "SCALAR"
    },
    {
      "bufferView": 2,
      "byteOffset": 5603184,
      "componentType": 5126,
      "count": 47800,
      "max": [
        0.046950310468673706,
        0.9495630860328674,
        0.2055494338274002
      ],
      "min": [
        -0.10616721212863922,
        0.15206797420978546,
        0.12590982019901276
      ],
      "type": "VEC3"
    },
    {
      "bufferView": 2,
      "byteOffset": 6176784,
      "componentType": 5126,
      "count": 47800,
      "max": [
        0.9999998211860657,
        0.5358304977416992,
        0.9999498128890991
      ],
      "min": [
        -0.9999996423721313,
        -0.6894994378089905,
        -0.9999945759773254
      ],
      "type": "VEC3"
    },
    {
      "bufferView": 0,
      "byteOffset": 1764552,
      "componentType": 5125,
      "count": 71700,
      "type": "SCALAR"
    }
  ],
  "asset": {
    "extras": {
      "author": "abhiaimer (https://sketchfab.com/abhiaimer)",
      "license": "CC-BY-4.0 (http://creativecommons.org/licenses/by/4.0/)",
      "source": "https://sketchfab.com/3d-models/indian-woman-in-traditional-saree-outfit-895a6682c82245058f408da36a80cb75",
      "title": "indian woman in traditional saree outfit"
    },
    "generator": "Sketchfab-13.1.0",
    "version": "2.0"
  },
  "bufferViews": [
    {
      "buffer": 0,
      "byteLength": 2051352,
      "name": "floatBufferViews",
      "target": 34963
    },
    {
      "buffer": 0,
      "byteLength": 149808,
      "byteOffset": 2051352,
      "byteStride": 8,
      "name": "floatBufferViews",
      "target": 34962
    },
    {
      "buffer": 0,
      "byteLength": 6750384,
      "byteOffset": 2201160,
      "byteStride": 12,
      "name": "floatBufferViews",
      "target": 34962
    }
  ],
  "buffers": [
    {
      "byteLength": 8951544,
      "uri": "scene.bin"
    }
  ],
  "images": [
    {
      "uri": "textures/high-poly_baseColor.png"
    }
  ],
  "materials": [
    {
      "doubleSided": true,
      "name": "FACE",
      "pbrMetallicRoughness": {
        "baseColorFactor": [
          1.0,
          0.555833,
          0.272117,
          1.0
        ],
        "metallicFactor": 0.0,
        "roughnessFactor": 0.5
      }
    },
    {
      "alphaMode": "BLEND",
      "doubleSided": true,
      "name": "high-poly",
      "pbrMetallicRoughness": {
        "baseColorTexture": {
          "index": 0
        },
        "roughnessFactor": 0.9
      }
    },
    {
      "doubleSided": true,
      "name": "Material"
    },
    {
      "doubleSided": true,
      "name": "HAIR",
      "pbrMetallicRoughness": {
        "baseColorFactor": [
          0.00717733,
          0.00384823,
          0.00233949,
          1.0
        ],
        "metallicFactor": 0.0,
        "roughnessFactor": 0.441104
      }
    },
    {
      "doubleSided": true,
      "name": "black_blouse",
      "pbrMetallicRoughness": {
        "baseColorFactor": [
          0.0,
          0.0,
          0.0,
          1.0
        ],
        "metallicFactor": 0.0,
        "roughnessFactor": 0.5
      }
    },
    {
      "doubleSided": true,
      "name": "ORANGE_SAREE.001",
      "pbrMetallicRoughness": {
        "baseColorFactor": [
          1.0,
          0.272342,
          0.0188268,
          1.0
        ],
        "metallicFactor": 0.0,
        "roughnessFactor": 0.5
      }
    },
    {
      "doubleSided": true,
      "name": "ORANGE_SAREE",
      "pbrMetallicRoughness": {
        "baseColorFactor": [
          1.0,
          0.272342,
          0.0188268,
          1.0
        ],
        "metallicFactor": 0.0,
        "roughnessFactor": 0.5
      }
    }
  ],
  "meshes": [
    {
      "name": "Object_0",
      "primitives": [
        {
          "attributes": {
            "NORMAL": 1,
            "POSITION": 0,
            "TEXCOORD_0": 2
          },
          "indices": 3,
          "material": 0,
          "mode": 4
        }
      ]
    },
    {
      "name": "Object_1",
      "primitives": [
        {
          "attributes": {
            "NORMAL": 5,
            "POSITION": 4,
            "TEXCOORD_0": 6
          },
          "indices": 7,
          "material": 1,
          "mode": 4
        }
      ]
    },
    {
      "name": "Object_2",
      "primitives": [
        {
          "attributes": {
            "NORMAL": 9,
            "POSITION": 8,
            "TEXCOORD_0": 10
          },
          "indices": 11,
          "material": 2,
          "mode": 4
        }
      ]
    },
    {
      "name": "Object_3",
      "primitives": [
        {
          "attributes": {
            "NORMAL": 13,
            "POSITION": 12
          },
          "indices": 14,
          "material": 3,
          "mode": 4
        }
      ]
    },
    {
      "name": "Object_4",
      "primitives": [
        {
          "attributes": {
            "NORMAL": 16,
            "POSITION": 15
          },
          "indices": 17,
          "material": 3,
          "mode": 4
        }
      ]
    },
    {
      "name": "Object_5",
      "primitives": [
        {
          "attributes": {
            "NORMAL": 19,
            "POSITION": 18
          },
          "indices": 20,
          "material": 3,
          "mode": 4
        }
      ]
    },
    {
      "name": "Object_6",
      "primitives": [
        {
          "attributes": {
            "NORMAL": 22,
            "POSITION": 21
          },
          "indices": 23,
          "material": 3,
          "mode": 4
        }
      ]
    },
    {
      "name": "Object_7",
      "primitives": [
        {
          "attributes": {
            "NORMAL": 25,
            "POSITION": 24,
            "TEXCOORD_0": 26
          },
          "indices": 27,
          "material": 3,
          "mode": 4
        }
      ]
    },
    {
      "name": "Object_8",
      "primitives": [
        {
          "attributes": {
            "NORMAL": 29,
            "POSITION": 28,
            "TEXCOORD_0": 30
          },
          "indices": 31,
          "material": 4,
          "mode": 4
        }
      ]
    },
    {
      "name": "Object_9",
      "primitives": [
        {
          "attributes": {
            "NORMAL": 33,
            "POSITION": 32,
            "TEXCOORD_0": 34
          },
          "indices": 35,
          "material": 5,
          "mode": 4
        }
      ]
    },
    {
      "name": "Object_10",
      "primitives": [
        {
          "attributes": {
            "NORMAL": 37,
            "POSITION": 36
          },
          "indices": 38,
          "material": 6,
          "mode": 4
        }
      ]
    },
    {
      "name": "Object_11",
      "primitives": [
        {
          "attributes": {
            "NORMAL": 40,
            "POSITION": 39
          },
          "indices": 41,
          "material": 6,
          "mode": 4
        }
      ]
    }
  ],
  "nodes": [
    {
      "children": [
        1
      ],
      "matrix": [
        1.0,
        0.0,
        0.0,
        0.0,
        0.0,
        2.220446049250313e-16,
        -1.0,
        0.0,
        0.0,
        1.0,
        2.220446049250313e-16,
        0.0,
        0.0,
        0.0,
        0.0,
        1.0
      ],
      "name": "Sketchfab_model"
    },
    {
      "children": [
        2
      ],
      "name": "root"
    },
    {
      "children": [
        3,
        7,
        9,
        14,
        16,
        18,
        20,
        22
      ],
      "matrix": [
        1.0,
        0.0,
        0.0,
        0.0,
        0.0,
        2.220446049250313e-16,
        1.0,
        0.0,
        0.0,
        -1.0,
        2.220446049250313e-16,
        0.0,
        0.0,
        0.0,
        0.0,
        1.0
      ],
      "name": "GLTF_SceneRootNode"
    },
    {
      "children": [
        4,
        5
      ],
      "name": "kangana_4"
    },
    {
      "mesh": 0,
      "name": "Object_4"
    },
    {
      "children": [
        6
      ],
      "matrix": [
        1.0199999809265137,
        0.0,
        0.0,
        0.0,
        0.0,
        1.0199999809265137,
        0.0,
        0.0,
        0.0,
        0.0,
        1.0199999809265137,
        0.0,
        0.002051563933491707,
        -0.024774324148893356,
        -0.048305694013834,
        1.0
      ],
      "name": "high-poly_3"
    },
    {
      "mesh": 1,
      "name": "Object_6"
    },
    {
      "children": [
        8
      ],
      "name": "head base_5"
    },
    {
      "mesh": 2,
      "name": "Object_8"
    },
    {
      "children": [
        10,
        11,
        12,
        13
      ],
      "name": "head base.001_6"
    },
    {
      "mesh": 3,
      "name": "Object_10"
    },
    {
      "mesh": 4,
      "name": "Object_11"
    },
    {
      "mesh": 5,
      "name": "Object_12"
    },
    {
      "mesh": 6,
      "name": "Object_13"
    },
    {
      "children": [
        15
      ],
      "name": "kangana.001_7"
    },
    {
      "mesh": 7,
      "name": "Object_15"
    },
    {
      "children": [
        17
      ],
      "name": "BLOUSE_8"
    },
    {
      "mesh": 8,
      "name": "Object_17"
    },
    {
      "children": [
        19
      ],
      "name": "saree_9"
    },
    {
      "mesh": 9,
      "name": "Object_19"
    },
    {
      "children": [
        21
      ],
      "name": "PALU_10"
    },
    {
      "mesh": 10,
      "name": "Object_21"
    },
    {
      "children": [
        23
      ],
      "name": "BezierCurve_11"
    },
    {
      "mesh": 11,
      "name": "Object_23"
    }
  ],
  "samplers": [
    {
      "magFilter": 9729,
      "minFilter": 9987,
      "wrapS": 10497,
      "wrapT": 10497
    }
  ],
  "scene": 0,
  "scenes": [
    {
      "name": "Sketchfab_Scene",
      "nodes": [
        0
      ]
    }
  ],
  "textures": [
    {
      "sampler": 0,
      "source": 0
    }
  ]
}
